<?xml version="1.0" encoding="utf-8"?>
<!-- Generator: Adobe Illustrator 22.1.0, SVG Export Plug-In . SVG Version: 6.00 Build 0)  -->
<svg version="1.1" xmlns="http://www.w3.org/2000/svg" xmlns:xlink="http://www.w3.org/1999/xlink" x="0px" y="0px"
	 viewBox="0 0 79.1 94.3" style="enable-background:new 0 0 79.1 94.3;" xml:space="preserve">
<style type="text/css">
	.st0{fill:#D2D2D2;}
	.st1{fill:#C8C8C8;}
	.st2{fill:#E6E6E6;}
	.st3{fill:#FFFFFF;}
	.st4{fill:#AAAAAA;}
	.st5{fill:#7E5331;}
	.st6{fill:#714C31;}
	.st7{fill:#9E5331;}
	.st8{opacity:0.5;}
	.st9{fill:#666600;}
	.st10{fill:#E5D785;}
</style>
<g id="レイヤー_1">
	<title>bg_calender</title>
	<g>
		<g id="レイヤー_2_1_">
			<g id="レイヤー_2-2">
				<rect x="7.7" y="13.9" class="st0" width="70.4" height="79.5"/>
				<path class="st1" d="M79.1,94.4H6.7V12.9h72.4V94.4z M8.7,92.4h68.4V14.9H8.7L8.7,92.4z"/>
				<path class="st2" d="M75.4,90.4H5c0-26,1.4-52,1.4-78.1h70.4C76.8,38.3,75.4,64.4,75.4,90.4z"/>
				<path class="st1" d="M76.4,91.4H4v-1c0-13,0.4-26.3,0.7-39.1s0.7-26,0.7-39v-1h72.4v1c0,13-0.4,26.3-0.7,39.1s-0.7,26-0.7,39
					V91.4z M6,89.4h68.4c0-12.7,0.4-25.6,0.7-38.1s0.7-25.3,0.7-38H7.4C7.3,26,7,38.9,6.7,51.4S6,76.7,6,89.4z"/>
				<path class="st3" d="M71.4,87.5H1c0-25,4.2-50.1,4.2-75.1h70.4C75.6,37.4,71.4,62.4,71.4,87.5z"/>
				<path class="st1" d="M72.4,88.5H0v-1c0-12.6,1.1-25.3,2.1-37.7s2.1-25,2.1-37.5v-1h72.4v1c0,12.6-1.1,25.3-2.1,37.7
					s-2.1,25-2.1,37.5V88.5z M2,86.5h68.4c0.1-12.2,1.1-24.7,2.1-36.7s2-24.3,2.1-36.5H6.2C6.2,25.6,5.1,38,4.1,50S2,74.3,2,86.5z"
					/>
				<polygon class="st4" points="76.6,19.4 75.3,18.7 74.5,19.1 73.6,18.9 72.2,18.6 71.6,19.6 71,19.6 70,18.5 69.1,18.6 68,19.4 
					67,19.7 66,19 64.8,18.5 63.9,19 63,18.8 62,19.1 60.8,19.5 59.7,18.9 58.5,18.9 57.4,18.7 56,19.4 55.1,18.8 54.2,19.3 
					53.3,19.2 52.4,19.7 51.5,18.8 50.6,19.4 49.7,19.6 48.7,18.6 47.5,19.4 46.3,18.4 45.2,19.3 43.9,18.9 42.7,18.6 41.6,18.6 
					40.5,19.2 39.4,19.4 38.3,18.9 37.3,19 36.2,18.9 35.1,18.5 33.7,18 32.7,18.8 31.6,18.2 30.8,18.8 29.6,18.2 28.9,19.3 
					27.7,19 27.2,19.3 26.2,18.9 25.3,19.8 24.7,19.3 23.7,19.5 22.4,18.6 21.5,18.7 20.9,19.7 19.6,19.1 18.4,19.3 17.9,19.8 
					16.7,20.3 15.7,19.6 15.2,19.3 14.3,18.8 13.7,19.5 13.1,18.9 12.2,19.3 11.4,20 10.2,19.8 9.4,19.1 8.2,20.1 7.4,18.8 
					6.2,19.2 7,18 6,16.9 6,15.9 6,14.8 6.2,13.8 6.7,13 7.4,12.6 8.4,12.6 9.4,12.1 10.4,13.4 11.5,12.3 12.5,13 13.5,12.7 
					14.5,12.9 15.6,13.2 16.6,12.4 17.6,12 18.6,12.3 19.7,12.2 20.7,12.3 21.7,12.1 22.8,12.9 23.8,12.5 24.8,13 25.8,12.7 
					26.9,12.3 27.9,12.1 28.9,12.1 29.9,12.6 30.9,12.5 32,12.8 33,12.6 34,12.5 35,13.2 36.1,12.9 37.1,12.8 38.1,12.3 39.1,13 
					40.2,12.8 41.2,12.4 42.2,12.5 43.2,12.6 44.2,13 45.3,12.3 46.3,12.9 47.3,12.3 48.3,13.3 49.4,13 50.4,12.4 51.4,12.3 
					52.5,12.3 53.5,13.1 54.5,13 55.5,12.6 56.6,13 57.6,12.8 58.6,12.5 59.7,12.6 60.7,12.8 61.7,12.8 62.7,13.1 63.8,12.4 
					64.8,12.3 65.8,12.6 66.8,12.5 67.9,12.1 68.9,12.1 69.9,13.1 71,12.2 72,12.5 73,12.4 74.1,12.1 75.1,12.8 75.8,13.1 
					75.5,13.8 76.4,14.8 76.5,15.9 76.2,16.9 76.1,18 				"/>
				<path class="st4" d="M16.7,20.8l-1.8-1.2l-0.5-0.3l-0.6,0.8L13,19.5l-0.5,0.2l-0.9,0.8L10,20.3l-0.6-0.5L8,20.8l-0.8-1.4L5,20
					l1.3-2l-0.8-0.9v-1.2v-1.1l0.3-1.3l0.5-0.9l1-0.6l1,0.1l1.3-0.7l0.9,1.2l0.9-1l1.2,0.8l0.9-0.2l1.1,0.1l0.9,0.3l0.9-0.7l1.2-0.5
					l1.1,0.2h1l1,0.1l1.2-0.2l1,0.7l1-0.4l1,0.6l0.8-0.2l1-0.4l1.2-0.3H29l1,0.6l1-0.1l1,0.3l0.9-0.2h1.3l1,0.6l0.8-0.2l1-0.1
					l1.2-0.5l1.1,0.7l0.8-0.2l1.1-0.4l1.1,0.1l1.2,0.1l0.8,0.3l1-0.7l1,0.6l1.1-0.7l1.1,1.1l0.7-0.3l1-0.6l2.4-0.1l1,0.8h0.8
					l1.3-0.6l1.1,0.5l0.9-0.2l1.1-0.4l1.1,0.1l1,0.2h1.1l0.8,0.2l0.9-0.6l1.2-0.1l1,0.3l0.9,0l1.1-0.4h1.3l0.8,0.8l0.9-0.8L72,12
					l0.9-0.1l1.2-0.4l1.2,0.9l1.1,0.4l-0.4,0.9l0.8,0.9l0.1,1.3L76.7,17l-0.1,0.9l0.9,2.5l-2.2-1.1l-0.7,0.4l-1-0.3l-1-0.2l-0.6,0.9
					h-1.1l-1-1h-0.6l-1.2,0.9l-1.2,0.3l-1.1-0.7l-1-0.4L64,19.5l-1-0.2l-2.2,0.8l-1.2-0.7l-1.1,0l-1-0.2L56,20l-0.9-0.6l-0.8,0.5
					l-0.9-0.1l-1.1,0.6l-0.9-0.9l-0.7,0.4L49.5,20l-0.9-0.9L47.5,20l-1.2-1l-1.1,0.8l-1.5-0.5l-1.1-0.2h-0.9l-1.2,0.6l-1.3,0.2
					l-1.1-0.5l-1,0.1L36,19.4l-2.2-0.9l-1.1,0.9l-1.1-0.7l-0.8,0.7l-1-0.6l-0.7,1.1l-1.3-0.4l-0.5,0.3l-1-0.4l-0.9,1l-0.8-0.6
					l-1,0.2l-1.3-0.9l-0.5,0L21,20.3l-1.5-0.7l-0.9,0.2L18,20.3L16.7,20.8z M14.2,18.2l1.8,1l0.8,0.6l0.8-0.3l0.6-0.5l1.5-0.3l1,0.5
					l0.5-0.8l1.4-0.1l1.2,0.9l1-0.2l0.5,0.3l0.8-0.8l1.2,0.4l0.5-0.3l1,0.3l0.8-1.3l1.2,0.8l0.8-0.7l1.1,0.7l1-0.8l1.6,0.6l1.1,0.5
					l0.9,0.1l1.2-0.2l1.1,0.5l0.9-0.1l1.1-0.6h1.3l1.3,0.3l1,0.4l1.3-1l1.2,1l1.2-0.8l1.2,1.1l0.6-0.1l1.1-0.8l0.9,0.9l0.7-0.4
					l0.9,0.1l1-0.7l0.9,0.7l1.2-0.7l1.3,0.3l1.2-0.1l1.1,0.6l2-0.7l0.9,0.2l0.9-0.5l1.5,0.6l0.8,0.5l0.7-0.2l1.1-0.9l1.4-0.1l1,1.1
					h0.1l0.6-1l1.7,0.3l0.7,0.2l0.8-0.4l0.4,0.2l0-0.3l0.2-1.2l0.2-1L75.9,15l-1-1.2l0.2-0.5l-0.3-0.1L74,12.6l-0.9,0.3L72,13
					l-0.9-0.2l-1.2,1l-1.2-1.1H68L66.9,13l-1.1,0.1l-1-0.3L64,12.9l-1.1,0.7l-1.2-0.3h-1.1l-1-0.2L58.8,13l-0.9,0.3l-1.2,0.3l-1-0.4
					l-1,0.4l-1.2,0.1l-1-0.8l-1.8,0.1l-0.9,0.5L48.3,14l-1-1l-0.9,0.5l-1-0.5l-1,0.7L43.1,13h-0.9l-0.9-0.1l-0.9,0.3L39,13.6l-1-0.7
					l-0.9,0.4l-1,0.1L35,13.7L33.9,13H33l-1.1,0.2l-1-0.3l-1.1,0.1l-1-0.6H28l-1,0.2l-0.9,0.4l-1.3,0.4l-1-0.5l-1.1,0.4l-1.1-0.8
					l-0.9,0.2l-1.1-0.1l-1,0.1l-0.9-0.2l-0.8,0.3l-1.2,0.9l-1.3-0.4l-0.9-0.1l-1.1,0.2l-0.9-0.6l-1.1,1.2l-1.1-1.5l-0.8,0.4l-1-0.1
					L7,13.4L6.7,14l-0.2,1v1v0.8L7.6,18l-0.3,0.4l0.3-0.1l0.7,1.1l1.1-0.8l1,0.8l0.9,0.1l0.8-0.6l1.1-0.5l0.5,0.5L14.2,18.2z"/>
				<polygon class="st3" points="75.8,18.7 74.5,18.1 73.7,18.4 72.9,18.2 71.4,18 70.8,18.9 70.2,18.9 69.2,17.8 68.3,17.9 
					67.2,18.8 66.2,19 65.2,18.3 64,17.9 63.1,18.3 62.2,18.1 61.2,18.5 60.1,18.9 58.9,18.2 57.7,18.3 56.6,18 55.2,18.7 
					54.3,18.1 53.4,18.7 52.5,18.5 51.6,19 50.7,18.1 49.8,18.7 48.9,18.9 47.9,17.9 46.7,18.7 45.5,17.7 44.4,18.6 43.2,18.2 
					41.9,17.9 40.8,17.9 39.7,18.5 38.6,18.7 37.5,18.2 36.5,18.3 35.5,18.3 34.3,17.8 33,17.3 31.9,18.2 30.8,17.5 30,18.2 
					28.9,17.5 28.1,18.6 27,18.3 26.5,18.6 25.4,18.2 24.6,19.1 23.9,18.6 22.9,18.8 21.6,17.9 20.7,18 20.1,19 18.8,18.4 
					17.6,18.6 17.1,19.1 15.9,19.6 14.9,18.9 14.4,18.6 13.5,18.1 12.9,18.8 12.3,18.2 11.5,18.6 10.6,19.3 9.4,19.1 8.6,18.5 
					7.4,19.4 6.6,18.2 5.4,18.5 6.2,17.3 5.2,16.3 5.2,15.2 5.2,14.2 5.4,13.1 5.9,12.3 6.6,11.9 7.6,12 8.6,11.4 9.7,12.7 
					10.7,11.6 11.7,12.3 12.7,12.1 13.8,12.2 14.8,12.5 15.8,11.8 16.8,11.4 17.9,11.6 18.9,11.6 19.9,11.6 20.9,11.4 22,12.2 
					23,11.8 24,12.3 25,12 26.1,11.6 27.1,11.4 28.1,11.4 29.1,12 30.2,11.8 31.2,12.1 32.2,11.9 33.2,11.9 34.2,12.5 35.3,12.2 
					36.3,12.1 37.3,11.7 38.3,12.4 39.4,12.1 40.4,11.7 41.4,11.8 42.4,11.9 43.5,12.4 44.5,11.7 45.5,12.2 46.5,11.6 47.6,12.7 
					48.6,12.3 49.6,11.7 50.7,11.7 51.7,11.6 52.7,12.4 53.7,12.4 54.8,11.9 55.8,12.4 56.8,12.1 57.8,11.8 58.9,11.9 59.9,12.1 
					60.9,12.1 62,12.4 63,11.7 64,11.6 65,11.9 66.1,11.8 67.1,11.4 68.1,11.5 69.2,12.4 70.2,11.5 71.2,11.8 72.2,11.7 73.3,11.4 
					74.3,12.2 75,12.4 74.7,13.1 75.6,14.2 75.7,15.2 75.4,16.3 75.3,17.3 				"/>
				<path class="st1" d="M15.9,20.2L14.1,19l-0.5-0.3L13,19.6l-0.8-0.7L11.7,19l-0.9,0.8l-1.6-0.2L8.6,19l-1.4,1.1l-0.8-1.4
					l-2.2,0.6l1.3-2l-0.8-0.9v-1.2v-1.1L5,12.9L5.5,12l1-0.6l1,0.1l1.3-0.7L9.7,12l0.9-1l1.2,0.8l0.9-0.2l1.1,0.1l0.9,0.3l0.9-0.7
					l1.2-0.5l1.1,0.2h1l1,0.1l1.2-0.2l1,0.7l1-0.4l1,0.6l0.8-0.2l1-0.4l1.2-0.3h1.2l1,0.6l1-0.1l1,0.3l0.9-0.2h1.3l1,0.6l0.8-0.2
					l1-0.1l1.2-0.5l1.1,0.7l0.8-0.2l1.1-0.4l1.2,0.2l1.2,0.1l0.8,0.4l1-0.7l1,0.6l1.1-0.7l1.1,1.1l0.7-0.3l1-0.6l2.3-0.3l1,0.8h0.8
					l1.2-0.5l1.1,0.5l0.9-0.2l1.1-0.4l1.1,0.1l1,0.2H61l0.8,0.2l0.9-0.6l1.2-0.1l1,0.3l1-0.1l1-0.4h1.3l0.8,0.8l0.9-0.8l1.2,0.4
					l0.9-0.1l1.2-0.4l1.2,0.9l1.1,0.4l-0.4,1l0.8,0.9l0.1,1.3l-0.3,1.1l-0.1,0.9l0.9,2.5l-2.2-1.1L73.8,19l-1-0.3l-1-0.1l-0.6,0.9
					h-1.1l-1-1h-0.6l-1.2,0.9l-1.2,0.3L65,18.8l-1-0.4l-0.8,0.4l-1-0.2L60,19.4l-1.2-0.7l-1.1,0.1l-1-0.2l-1.4,0.8l-0.9-0.6
					l-0.8,0.5L52.6,19l-1.1,0.6l-0.9-0.9l-0.7,0.4l-1.2,0.2l-0.9-0.9l-1.1,0.8l-1.2-1l-1.1,0.8L43,18.7l-1.1-0.2H41L39.8,19
					l-1.3,0.2l-1.1-0.5l-1,0.1l-1.2-0.1L33,17.9l-1.1,0.9l-1.1-0.7L30,18.8l-1-0.6l-0.7,1.1L27,18.8l-0.5,0.3l-1-0.4l-0.9,1
					l-0.8-0.6l-1,0.2l-1.3-0.9l-0.5,0l-0.7,1.1l-1.5-0.7l-0.9,0.2l-0.6,0.5L15.9,20.2z M13.4,17.5l1.8,1L16,19l0.8-0.3l0.6-0.5
					l1.5-0.3l1,0.5l0.5-0.8l1.4-0.1l1.2,0.9l1-0.2l0.5,0.3l0.8-0.8l1.2,0.4l0.5-0.3l1,0.3l0.8-1.3l1.2,0.8l0.8-0.7l1.1,0.7l1-0.8
					l1.6,0.6l1.1,0.5l0.9,0.1l1.2-0.2l1.1,0.5l0.9-0.1l1.1-0.6H42l1.3,0.3l1,0.4l1.3-1l1.2,1l1.2-0.8l1.1,1.1l0.6-0.1l1.1-0.8
					l0.9,0.9l0.7-0.4l0.9,0.1l1-0.7l0.9,0.7l1.2-0.7l1.3,0.3l1.3-0.1l1.1,0.6l2-0.7l0.9,0.2l0.9-0.5l1.5,0.6l0.8,0.5l0.7-0.2
					l1.1-0.9l1.4-0.1l1,1.1h0.1l0.6-1l1.7,0.3l0.7,0.2l0.8-0.4l0.4,0.2l-0.1-0.4l0.2-1.1l0.2-1l-0.1-0.8l-1-1.2l0.2-0.5L74,12.6
					l-0.8-0.6l-0.9,0.3l-1.1,0.1L70.3,12l-1.2,1l-1.2-1.1h-0.8l-1.1,0.4L65,12.4l-1-0.3l-0.8,0.1L62,12.9l-1.2-0.3h-1l-1-0.2
					l-0.9-0.1L57,12.6l-1.2,0.3l-1-0.4l-1,0.4l-1.2,0.1l-1-0.8l-1.8,0.1l-0.9,0.5l-1.4,0.5l-1-1l-0.9,0.5l-1-0.5l-1,0.7l-1.2-0.5
					h-0.9l-0.9-0.1l-0.9,0.3L38.3,13l-1-0.7l-0.9,0.4l-1,0.1L34.2,13l-1.1-0.7h-0.9l-1.1,0.2l-1-0.3L29,12.5l-1-0.6h-0.8l-1,0.2
					l-0.9,0.4L24,12.9l-1-0.5l-1.1,0.4L20.9,12L20,12.1L18.9,12h-1l-0.9-0.2l-0.8,0.3L14.9,13l-1.3-0.4l-0.9-0.1l-1.1,0.2l-0.9-0.6
					l-1.1,1.3L8.5,12l-0.8,0.4l-1-0.1l-0.5,0.3l-0.3,0.6l-0.2,1v1v0.8l1.1,1.2l-0.3,0.4l0.3-0.1l0.7,1.1l1.1-0.8l1,0.8l0.9,0.1
					l0.8-0.6l1.1-0.5l0.5,0.4L13.4,17.5z"/>
			</g>
		</g>
	</g>
</g>
<g id="レイヤー_2">
	<g>
		<g>
			<rect x="2.8" y="1.7" class="st5" width="75" height="13.9"/>
			<polygon class="st6" points="79.1,13.9 77.8,15.6 77.8,1.7 79.1,0 			"/>
			<polygon class="st7" points="77.8,1.7 2.8,1.7 4.1,0 79.1,0 			"/>
		</g>
		<g>
			<g class="st8">
				<path class="st9" d="M12.8,8.2c-0.3,0-0.5-0.3-0.5-0.6c-0.4,0.2-0.9,0.5-1.2,0.5c-0.4,0-0.7-0.4-0.7-0.8c0-0.3,0.1-0.5,0.4-0.6
					c1-0.3,2-1,2.9-1.5c0.3-0.2,0.5-0.2,0.8-0.2c0.3,0,0.5,0.1,0.7,0.2c0.8,0.5,1.9,1.1,2.9,1.5c0.3,0.1,0.4,0.4,0.4,0.7
					c0,0.4-0.3,0.8-0.7,0.8c-0.2,0-1-0.3-1.2-0.5c0,0.3-0.2,0.6-0.6,0.6H12.8z M11.3,10c-0.3,0-0.5-0.4-0.5-0.7
					c0-0.4,0.2-0.7,0.5-0.7h6.1c0.6,0,0.9,0.4,0.9,0.8c0,0.2,0,0.3-0.1,0.5c-0.8,2.1-2.9,2.9-5.6,3.2h-0.1c-0.5,0-0.7-0.4-0.7-0.8
					c0-0.3,0.2-0.7,0.6-0.7c1.8-0.1,3.1-0.6,4.1-1.5H11.3z M15.6,7c-0.4-0.2-0.8-0.4-1-0.6c0,0-0.1,0-0.1,0c0,0-0.1,0-1,0.6H15.6z"
					/>
				<path class="st9" d="M21.7,12.8c-0.6,0-1-0.5-1-1V6.3c0-0.6,0.5-1,1-1h4.9c0.6,0,1,0.5,1,1v5.5c0,0.6-0.5,1-1,1H21.7z M26.1,6.7
					C26.1,6.7,26.1,6.6,26.1,6.7l-3.8-0.1c0,0-0.1,0-0.1,0.1v1.5h3.8V6.7z M26.1,9.6h-3.8v1.7c0,0,0,0.1,0.1,0.1H26
					c0,0,0.1,0,0.1-0.1V9.6z"/>
				<path class="st9" d="M31.7,11.7c0,0.4-0.4,0.7-0.8,0.7c-0.3,0-0.6-0.2-0.7-0.6c-0.1-0.6-0.2-1.3-0.2-2.1c0-0.7,0-2.2,0.4-3.8
					c0.1-0.3,0.4-0.5,0.7-0.5c0.4,0,0.8,0.2,0.8,0.6c0,0.1,0,0.1,0,0.2c-0.3,1-0.4,1.9-0.4,2.8c0,0.9,0,1.8,0.3,2.4
					C31.6,11.5,31.7,11.6,31.7,11.7z M36.6,6.5c0.3,0,0.5,0.3,0.5,0.6c0,0.3-0.1,0.6-0.4,0.7c-0.3,0-0.6,0.1-0.9,0.1
					c0,0.8,0.1,1.8,0.1,2.1c0.4,0.2,0.7,0.4,1,0.6c0.2,0.1,0.3,0.4,0.3,0.6c0,0.4-0.3,0.8-0.7,0.8c-0.2,0-0.3-0.1-0.8-0.4
					c-0.2,0.9-0.9,1.2-1.8,1.2c-1.3,0-2.1-0.7-2.1-1.7c0-1,0.7-1.5,1.9-1.5c0.2,0,0.5,0,0.7,0.1c0-0.5,0-1.1,0-1.5c-0.6,0-1.3,0-2,0
					c-0.4,0-0.5-0.3-0.5-0.7c0-0.3,0.2-0.7,0.5-0.7h0c0.5,0,1.1,0,1.6,0c0.1,0,0.2,0,0.3,0c0-0.3,0-0.6,0-0.8v0
					c0-0.3,0.4-0.5,0.7-0.5c0.3,0,0.6,0.2,0.7,0.5c0,0.2,0,0.5,0,0.8C36,6.6,36.3,6.5,36.6,6.5L36.6,6.5z M33.7,10.6
					c-0.4,0-0.5,0.1-0.5,0.3c0,0.2,0.2,0.5,0.6,0.5c0.4,0,0.6-0.2,0.6-0.6C34.2,10.6,33.9,10.6,33.7,10.6z"/>
				<path class="st9" d="M45,6.7h-3.3c-0.2,0-0.4-0.1-0.5-0.3c-0.1,0.3-0.2,0.5-0.3,0.8v5.4c0,0.3-0.3,0.5-0.7,0.5
					c-0.4,0-0.7-0.2-0.7-0.5V9.1c0,0-0.1,0-0.1,0c-0.4,0-0.7-0.5-0.7-0.9c0-0.1,0-0.2,0.1-0.3c0.5-0.8,1-1.6,1.3-2.6
					c0.1-0.2,0.3-0.3,0.5-0.3c0.4,0,0.8,0.2,0.8,0.5c0.1,0,0.1,0,0.2,0h4.7c0.4,0,0.5,0.3,0.5,0.7s-0.2,0.7-0.5,0.7v4.8
					c0,1.1-0.3,1.5-1.4,1.5c-0.4,0-0.9-0.1-1.6-0.2c-0.3-0.1-0.5-0.3-0.5-0.6c0-0.4,0.2-0.8,0.6-0.8c0,0,0.1,0,0.1,0
					c0.6,0.1,0.9,0.2,1,0.2c0.2,0,0.2-0.1,0.2-0.2V6.7z M42.2,11.3c-0.6,0-0.9-0.3-0.9-0.9V7.8c0-0.6,0.3-0.9,0.9-0.9h1.5
					c0.6,0,0.9,0.3,0.9,0.9v2.5c0,0.6-0.3,0.9-0.9,0.9H42.2z M43.3,8.3h-0.7V10h0.7V8.3z"/>
				<path class="st9" d="M56.9,9.1c0,2-1.3,3.5-3.3,3.7c0,0-0.1,0-0.1,0c-0.5,0-0.8-0.4-0.8-0.8c0-0.4,0.2-0.7,0.6-0.7
					c1.5-0.2,2.1-1.3,2.1-2.1c0-1-0.5-2-1.9-2.2c-0.3,1.5-0.6,2.6-1.2,3.9c-0.4,0.9-1.2,1.5-2,1.5c-1,0-1.8-1-1.8-2.6
					c0-1.8,1.3-4.2,4.5-4.2C55,5.6,56.8,6.7,56.9,9.1L56.9,9.1z M49.9,9.7c0,1,0.4,1,0.4,1c0.2,0,0.4-0.2,0.5-0.4
					c0.5-0.9,0.8-2,1.1-3.2C50.6,7.4,49.9,8.6,49.9,9.7z"/>
				<path class="st9" d="M60.2,12.8c-0.6,0-1-0.5-1-1V6.3c0-0.6,0.5-1,1-1h4.9c0.6,0,1,0.5,1,1v5.5c0,0.6-0.5,1-1,1H60.2z M64.5,6.7
					C64.5,6.7,64.5,6.6,64.5,6.7l-3.8-0.1c0,0-0.1,0-0.1,0.1v1.5h3.8V6.7z M64.5,9.6h-3.8v1.7c0,0,0,0.1,0.1,0.1h3.7
					c0,0,0.1,0,0.1-0.1V9.6z"/>
				<path class="st9" d="M68,7.1c0.1-1.1,0.9-2,2.5-2c1.7,0,2.5,1,2.5,2C73,9,71.2,9,71.2,10c0,0.4-0.3,0.6-0.7,0.6
					s-0.7-0.2-0.7-0.6c0-1.8,1.6-1.9,1.6-2.7c0-0.4-0.4-0.7-0.9-0.7c-0.8,0-1,0.3-1.1,0.8c-0.1,0.4-0.4,0.6-0.7,0.6
					C68.4,7.8,68,7.6,68,7.1L68,7.1z M70.6,12.5c-0.4,0-0.8-0.4-0.8-0.8s0.4-0.8,0.8-0.8c0.4,0,0.8,0.4,0.8,0.8S71,12.5,70.6,12.5z"
					/>
			</g>
			<g>
				<g>
					<path class="st10" d="M12.3,7.7c-0.3,0-0.5-0.3-0.5-0.6c-0.4,0.2-0.9,0.5-1.2,0.5c-0.4,0-0.7-0.4-0.7-0.8
						c0-0.3,0.1-0.5,0.4-0.6c1-0.3,2-1,2.9-1.5c0.3-0.2,0.5-0.2,0.8-0.2c0.3,0,0.5,0.1,0.7,0.2c0.8,0.5,1.9,1.1,2.9,1.5
						C17.9,6.2,18,6.5,18,6.8c0,0.4-0.3,0.8-0.7,0.8c-0.2,0-1-0.3-1.2-0.5c0,0.3-0.2,0.6-0.6,0.6H12.3z M10.8,9.5
						c-0.3,0-0.5-0.4-0.5-0.7c0-0.4,0.2-0.7,0.5-0.7h6.1c0.6,0,0.9,0.4,0.9,0.8c0,0.2,0,0.3-0.1,0.5c-0.8,2.1-2.9,2.9-5.6,3.2H12
						c-0.5,0-0.7-0.4-0.7-0.8c0-0.3,0.2-0.7,0.6-0.7c1.8-0.1,3.1-0.6,4.1-1.5H10.8z M15.1,6.5c-0.4-0.2-0.8-0.4-1-0.6
						c0,0-0.1,0-0.1,0c0,0-0.1,0-1,0.6H15.1z"/>
					<path class="st10" d="M21.2,12.3c-0.6,0-1-0.5-1-1V5.8c0-0.6,0.5-1,1-1h4.9c0.6,0,1,0.5,1,1v5.5c0,0.6-0.5,1-1,1H21.2z
						 M25.6,6.2C25.6,6.2,25.6,6.1,25.6,6.2l-3.8-0.1c0,0-0.1,0-0.1,0.1v1.5h3.8V6.2z M25.6,9.1h-3.8v1.7c0,0,0,0.1,0.1,0.1h3.7
						c0,0,0.1,0,0.1-0.1V9.1z"/>
					<path class="st10" d="M31.2,11.2c0,0.4-0.4,0.7-0.8,0.7c-0.3,0-0.6-0.2-0.7-0.6c-0.1-0.6-0.2-1.3-0.2-2.1c0-0.7,0-2.2,0.4-3.8
						C30,5.1,30.2,5,30.5,5c0.4,0,0.8,0.2,0.8,0.6c0,0.1,0,0.1,0,0.2c-0.3,1-0.4,1.9-0.4,2.8c0,0.9,0,1.8,0.3,2.4
						C31.1,11,31.2,11.1,31.2,11.2z M36.1,6c0.3,0,0.5,0.3,0.5,0.6c0,0.3-0.1,0.6-0.4,0.7c-0.3,0-0.6,0.1-0.9,0.1
						c0,0.8,0.1,1.8,0.1,2.1c0.4,0.2,0.7,0.4,1,0.6c0.2,0.1,0.3,0.4,0.3,0.6c0,0.4-0.3,0.8-0.7,0.8c-0.2,0-0.3-0.1-0.8-0.4
						c-0.2,0.9-0.9,1.2-1.8,1.2c-1.3,0-2.1-0.7-2.1-1.7c0-1,0.7-1.5,1.9-1.5c0.2,0,0.5,0,0.7,0.1c0-0.5,0-1.1,0-1.5
						c-0.6,0-1.3,0-2,0c-0.4,0-0.5-0.3-0.5-0.7c0-0.3,0.2-0.7,0.5-0.7h0c0.5,0,1.1,0,1.6,0c0.1,0,0.2,0,0.3,0c0-0.3,0-0.6,0-0.8v0
						c0-0.3,0.4-0.5,0.7-0.5c0.3,0,0.6,0.2,0.7,0.5c0,0.2,0,0.5,0,0.8C35.5,6.1,35.8,6,36.1,6L36.1,6z M33.2,10.1
						c-0.4,0-0.5,0.1-0.5,0.3c0,0.2,0.2,0.5,0.6,0.5c0.4,0,0.6-0.2,0.6-0.6C33.7,10.1,33.4,10.1,33.2,10.1z"/>
					<path class="st10" d="M44.5,6.2h-3.3c-0.2,0-0.4-0.1-0.5-0.3c-0.1,0.3-0.2,0.5-0.3,0.8V12c0,0.3-0.3,0.5-0.7,0.5
						c-0.4,0-0.7-0.2-0.7-0.5V8.6c0,0-0.1,0-0.1,0c-0.4,0-0.7-0.5-0.7-0.9c0-0.1,0-0.2,0.1-0.3c0.5-0.8,1-1.6,1.3-2.6
						c0.1-0.2,0.3-0.3,0.5-0.3c0.4,0,0.8,0.2,0.8,0.5c0.1,0,0.1,0,0.2,0h4.7c0.4,0,0.5,0.3,0.5,0.7s-0.2,0.7-0.5,0.7V11
						c0,1.1-0.3,1.5-1.4,1.5c-0.4,0-0.9-0.1-1.6-0.2c-0.3-0.1-0.5-0.3-0.5-0.6c0-0.4,0.2-0.8,0.6-0.8c0,0,0.1,0,0.1,0
						c0.6,0.1,0.9,0.2,1,0.2c0.2,0,0.2-0.1,0.2-0.2V6.2z M41.7,10.8c-0.6,0-0.9-0.3-0.9-0.9V7.3c0-0.6,0.3-0.9,0.9-0.9h1.5
						c0.6,0,0.9,0.3,0.9,0.9v2.5c0,0.6-0.3,0.9-0.9,0.9H41.7z M42.8,7.8h-0.7v1.7h0.7V7.8z"/>
					<path class="st10" d="M56.4,8.6c0,2-1.3,3.5-3.3,3.7c0,0-0.1,0-0.1,0c-0.5,0-0.8-0.4-0.8-0.8c0-0.4,0.2-0.7,0.6-0.7
						c1.5-0.2,2.1-1.3,2.1-2.1c0-1-0.5-2-1.9-2.2c-0.3,1.5-0.6,2.6-1.2,3.9c-0.4,0.9-1.2,1.5-2,1.5c-1,0-1.8-1-1.8-2.6
						c0-1.8,1.3-4.2,4.5-4.2C54.5,5.1,56.3,6.2,56.4,8.6L56.4,8.6z M49.4,9.2c0,1,0.4,1,0.4,1c0.2,0,0.4-0.2,0.5-0.4
						c0.5-0.9,0.8-2,1.1-3.2C50.1,6.9,49.4,8.1,49.4,9.2z"/>
					<path class="st10" d="M59.7,12.3c-0.6,0-1-0.5-1-1V5.8c0-0.6,0.5-1,1-1h4.9c0.6,0,1,0.5,1,1v5.5c0,0.6-0.5,1-1,1H59.7z M64,6.2
						C64,6.2,64,6.1,64,6.2l-3.8-0.1c0,0-0.1,0-0.1,0.1v1.5H64V6.2z M64,9.1h-3.8v1.7c0,0,0,0.1,0.1,0.1H64c0,0,0.1,0,0.1-0.1V9.1z"
						/>
					<path class="st10" d="M67.5,6.6c0.1-1.1,0.9-2,2.5-2c1.7,0,2.5,1,2.5,2c0,1.8-1.8,1.8-1.8,2.8c0,0.4-0.3,0.6-0.7,0.6
						s-0.7-0.2-0.7-0.6c0-1.8,1.6-1.9,1.6-2.7C71,6.3,70.6,6,70,6c-0.8,0-1,0.3-1.1,0.8c-0.1,0.4-0.4,0.6-0.7,0.6
						C67.9,7.3,67.5,7.1,67.5,6.6L67.5,6.6z M70.1,12c-0.4,0-0.8-0.4-0.8-0.8s0.4-0.8,0.8-0.8c0.4,0,0.8,0.4,0.8,0.8
						S70.5,12,70.1,12z"/>
				</g>
			</g>
		</g>
	</g>
</g>
</svg>
