<svg xmlns="http://www.w3.org/2000/svg" viewBox="0 0 35 20"><defs><style>.cls-1{fill:#5a5a5a;}</style></defs><title>month_10</title><g id="レイヤー_2" data-name="レイヤー 2"><path class="cls-1" d="M2.88,4.15c0-.7-.22-.89-.94-.89a.91.91,0,0,1-1-.93c0-.83.64-.86,1.26-.91A17.43,17.43,0,0,0,5.64.8c.26-.07.88-.33,1-.33.32,0,.64.26.64.81V16.33c0,.67.21.86.79.89s1.2.05,1.2.91a.88.88,0,0,1-.83.93H1.72a.92.92,0,0,1,0-1.84c.82,0,1.16,0,1.16-.89Z"/><path class="cls-1" d="M20.47,10c0,5.66-2.31,9.51-5.41,9.51S9.62,15.69,9.62,10,12,.47,15.06.47,20.47,4.31,20.47,10ZM14,10c0,5.21.19,7.86,1,7.86s1.1-2.65,1.1-7.86c0-6.57-.39-7.84-1-7.84S14,3.43,14,10Z"/><path class="cls-1" d="M30.67,12.74H25.32a7,7,0,0,1-.94,2.85,1,1,0,0,1-.86.51A1.16,1.16,0,0,1,22.34,15a1,1,0,0,1,.12-.47,5.57,5.57,0,0,0,.91-3.11v-5a1.14,1.14,0,0,1,1.27-1.27H31.4a1.14,1.14,0,0,1,1.28,1.27v7.3c0,1.55-.32,2.35-2.35,2.35a14.69,14.69,0,0,1-2-.16.89.89,0,0,1-.68-1c0-.55.3-1.13.82-1.13h.11a12.23,12.23,0,0,0,1.47.16c.56,0,.59-.2.59-.68Zm0-5.58H25.39V8.1h5.28Zm0,2.78H25.39v1h5.28Z"/></g></svg>